<mxfile host="app.diagrams.net" modified="2024-03-10T02:11:53.066Z" agent="Mozilla/5.0 (Macintosh; Intel Mac OS X 10_15_7) AppleWebKit/537.36 (KHTML, like Gecko) Chrome/122.0.0.0 Safari/537.36" etag="IgJFeGI1MfJ9PAeH2xzT" version="24.0.4" type="device">
  <diagram id="R2lEEEUBdFMjLlhIrx00" name="Page-1">
    <mxGraphModel dx="1322" dy="846" grid="1" gridSize="10" guides="1" tooltips="1" connect="1" arrows="1" fold="1" page="1" pageScale="1" pageWidth="1169" pageHeight="1654" math="0" shadow="0" extFonts="Permanent Marker^https://fonts.googleapis.com/css?family=Permanent+Marker">
      <root>
        <mxCell id="0" />
        <mxCell id="1" parent="0" />
        <mxCell id="53mwS3FT6bJK5tY8UTz--1" value="Professor" style="rounded=0;whiteSpace=wrap;html=1;" parent="1" vertex="1">
          <mxGeometry x="670" y="290" width="120" height="60" as="geometry" />
        </mxCell>
        <mxCell id="53mwS3FT6bJK5tY8UTz--2" value="Sections" style="rounded=0;whiteSpace=wrap;html=1;" parent="1" vertex="1">
          <mxGeometry x="1250" y="290" width="120" height="60" as="geometry" />
        </mxCell>
        <mxCell id="53mwS3FT6bJK5tY8UTz--6" value="Teach" style="rhombus;whiteSpace=wrap;html=1;" parent="1" vertex="1">
          <mxGeometry x="910" y="280" width="120" height="80" as="geometry" />
        </mxCell>
        <mxCell id="53mwS3FT6bJK5tY8UTz--11" value="Assignment" style="rounded=0;whiteSpace=wrap;html=1;" parent="1" vertex="1">
          <mxGeometry x="840" y="797" width="120" height="60" as="geometry" />
        </mxCell>
        <mxCell id="53mwS3FT6bJK5tY8UTz--14" value="Give" style="rhombus;whiteSpace=wrap;html=1;" parent="1" vertex="1">
          <mxGeometry x="720" y="600" width="130" height="80" as="geometry" />
        </mxCell>
        <mxCell id="53mwS3FT6bJK5tY8UTz--17" value="&lt;div style=&quot;font-family: Menlo, Monaco, &amp;quot;Courier New&amp;quot;, monospace; line-height: 18px; white-space: pre;&quot;&gt;&lt;u&gt;assignment_id&lt;/u&gt;&lt;/div&gt;" style="ellipse;whiteSpace=wrap;html=1;labelBackgroundColor=default;fontColor=#000000;" parent="1" vertex="1">
          <mxGeometry x="680" y="1020" width="100" height="70" as="geometry" />
        </mxCell>
        <mxCell id="53mwS3FT6bJK5tY8UTz--18" value="" style="endArrow=none;dashed=1;html=1;rounded=0;entryX=0.5;entryY=1;entryDx=0;entryDy=0;" parent="1" source="53mwS3FT6bJK5tY8UTz--17" target="53mwS3FT6bJK5tY8UTz--11" edge="1">
          <mxGeometry width="50" height="50" relative="1" as="geometry">
            <mxPoint x="1040" y="700" as="sourcePoint" />
            <mxPoint x="1090" y="650" as="targetPoint" />
          </mxGeometry>
        </mxCell>
        <mxCell id="53mwS3FT6bJK5tY8UTz--19" value="" style="endArrow=none;dashed=1;html=1;rounded=0;exitX=0.5;exitY=0;exitDx=0;exitDy=0;entryX=1;entryY=1;entryDx=0;entryDy=0;" parent="1" source="53mwS3FT6bJK5tY8UTz--11" target="53mwS3FT6bJK5tY8UTz--14" edge="1">
          <mxGeometry width="50" height="50" relative="1" as="geometry">
            <mxPoint x="1040" y="700" as="sourcePoint" />
            <mxPoint x="1090" y="650" as="targetPoint" />
          </mxGeometry>
        </mxCell>
        <mxCell id="53mwS3FT6bJK5tY8UTz--20" value="" style="endArrow=none;dashed=1;html=1;rounded=0;entryX=0.5;entryY=1;entryDx=0;entryDy=0;exitX=0;exitY=0;exitDx=0;exitDy=0;" parent="1" source="53mwS3FT6bJK5tY8UTz--14" target="53mwS3FT6bJK5tY8UTz--1" edge="1">
          <mxGeometry width="50" height="50" relative="1" as="geometry">
            <mxPoint x="1040" y="700" as="sourcePoint" />
            <mxPoint x="1090" y="650" as="targetPoint" />
          </mxGeometry>
        </mxCell>
        <mxCell id="53mwS3FT6bJK5tY8UTz--21" value="" style="endArrow=none;dashed=1;html=1;rounded=0;entryX=0;entryY=0.5;entryDx=0;entryDy=0;exitX=1;exitY=0.5;exitDx=0;exitDy=0;" parent="1" source="53mwS3FT6bJK5tY8UTz--1" target="53mwS3FT6bJK5tY8UTz--6" edge="1">
          <mxGeometry width="50" height="50" relative="1" as="geometry">
            <mxPoint x="1040" y="700" as="sourcePoint" />
            <mxPoint x="1090" y="650" as="targetPoint" />
          </mxGeometry>
        </mxCell>
        <mxCell id="53mwS3FT6bJK5tY8UTz--22" value="" style="endArrow=none;dashed=1;html=1;rounded=0;entryX=1;entryY=0.5;entryDx=0;entryDy=0;exitX=0;exitY=0.5;exitDx=0;exitDy=0;" parent="1" source="53mwS3FT6bJK5tY8UTz--2" target="53mwS3FT6bJK5tY8UTz--6" edge="1">
          <mxGeometry width="50" height="50" relative="1" as="geometry">
            <mxPoint x="1040" y="700" as="sourcePoint" />
            <mxPoint x="1090" y="650" as="targetPoint" />
          </mxGeometry>
        </mxCell>
        <mxCell id="53mwS3FT6bJK5tY8UTz--23" value="assignment_topic" style="ellipse;whiteSpace=wrap;html=1;" parent="1" vertex="1">
          <mxGeometry x="820" y="1050" width="100" height="63" as="geometry" />
        </mxCell>
        <mxCell id="53mwS3FT6bJK5tY8UTz--24" value="" style="endArrow=none;dashed=1;html=1;rounded=0;exitX=0.5;exitY=0;exitDx=0;exitDy=0;entryX=0.5;entryY=1;entryDx=0;entryDy=0;" parent="1" source="53mwS3FT6bJK5tY8UTz--23" target="53mwS3FT6bJK5tY8UTz--11" edge="1">
          <mxGeometry width="50" height="50" relative="1" as="geometry">
            <mxPoint x="1040" y="700" as="sourcePoint" />
            <mxPoint x="1090" y="650" as="targetPoint" />
          </mxGeometry>
        </mxCell>
        <mxCell id="53mwS3FT6bJK5tY8UTz--25" value="relevant_reading" style="ellipse;whiteSpace=wrap;html=1;" parent="1" vertex="1">
          <mxGeometry x="955" y="1040" width="110" height="70" as="geometry" />
        </mxCell>
        <mxCell id="53mwS3FT6bJK5tY8UTz--26" value="" style="endArrow=none;dashed=1;html=1;rounded=0;entryX=0.5;entryY=0;entryDx=0;entryDy=0;exitX=0.5;exitY=1;exitDx=0;exitDy=0;" parent="1" source="53mwS3FT6bJK5tY8UTz--11" target="53mwS3FT6bJK5tY8UTz--25" edge="1">
          <mxGeometry width="50" height="50" relative="1" as="geometry">
            <mxPoint x="1040" y="700" as="sourcePoint" />
            <mxPoint x="1090" y="650" as="targetPoint" />
          </mxGeometry>
        </mxCell>
        <mxCell id="53mwS3FT6bJK5tY8UTz--27" value="&lt;u&gt;professir_id&lt;/u&gt;" style="ellipse;whiteSpace=wrap;html=1;" parent="1" vertex="1">
          <mxGeometry x="380" y="130" width="110" height="70" as="geometry" />
        </mxCell>
        <mxCell id="53mwS3FT6bJK5tY8UTz--28" value="professor_name" style="ellipse;whiteSpace=wrap;html=1;" parent="1" vertex="1">
          <mxGeometry x="350" y="290" width="115" height="70" as="geometry" />
        </mxCell>
        <mxCell id="53mwS3FT6bJK5tY8UTz--29" value="professor_email" style="ellipse;whiteSpace=wrap;html=1;" parent="1" vertex="1">
          <mxGeometry x="410" y="450" width="117.5" height="70" as="geometry" />
        </mxCell>
        <mxCell id="53mwS3FT6bJK5tY8UTz--30" value="" style="endArrow=none;dashed=1;html=1;rounded=0;exitX=0;exitY=0.5;exitDx=0;exitDy=0;entryX=1;entryY=0.5;entryDx=0;entryDy=0;" parent="1" source="53mwS3FT6bJK5tY8UTz--1" target="53mwS3FT6bJK5tY8UTz--28" edge="1">
          <mxGeometry width="50" height="50" relative="1" as="geometry">
            <mxPoint x="920" y="520" as="sourcePoint" />
            <mxPoint x="970" y="470" as="targetPoint" />
          </mxGeometry>
        </mxCell>
        <mxCell id="53mwS3FT6bJK5tY8UTz--31" value="" style="endArrow=none;dashed=1;html=1;rounded=0;exitX=0;exitY=0.5;exitDx=0;exitDy=0;entryX=1;entryY=1;entryDx=0;entryDy=0;" parent="1" source="53mwS3FT6bJK5tY8UTz--1" target="53mwS3FT6bJK5tY8UTz--27" edge="1">
          <mxGeometry width="50" height="50" relative="1" as="geometry">
            <mxPoint x="920" y="520" as="sourcePoint" />
            <mxPoint x="970" y="470" as="targetPoint" />
          </mxGeometry>
        </mxCell>
        <mxCell id="53mwS3FT6bJK5tY8UTz--32" value="" style="endArrow=none;dashed=1;html=1;rounded=0;exitX=1;exitY=0;exitDx=0;exitDy=0;entryX=0;entryY=0.5;entryDx=0;entryDy=0;" parent="1" source="53mwS3FT6bJK5tY8UTz--29" target="53mwS3FT6bJK5tY8UTz--1" edge="1">
          <mxGeometry width="50" height="50" relative="1" as="geometry">
            <mxPoint x="920" y="520" as="sourcePoint" />
            <mxPoint x="970" y="470" as="targetPoint" />
          </mxGeometry>
        </mxCell>
        <mxCell id="53mwS3FT6bJK5tY8UTz--33" value="&lt;u&gt;section_id&lt;/u&gt;" style="ellipse;whiteSpace=wrap;html=1;" parent="1" vertex="1">
          <mxGeometry x="1540" y="130" width="120" height="80" as="geometry" />
        </mxCell>
        <mxCell id="53mwS3FT6bJK5tY8UTz--34" value="professor_id" style="ellipse;whiteSpace=wrap;html=1;" parent="1" vertex="1">
          <mxGeometry x="1560" y="275" width="110" height="75" as="geometry" />
        </mxCell>
        <mxCell id="53mwS3FT6bJK5tY8UTz--35" value="classroom" style="ellipse;whiteSpace=wrap;html=1;" parent="1" vertex="1">
          <mxGeometry x="1550" y="390" width="110" height="70" as="geometry" />
        </mxCell>
        <mxCell id="53mwS3FT6bJK5tY8UTz--36" value="" style="endArrow=none;dashed=1;html=1;rounded=0;entryX=0;entryY=0.5;entryDx=0;entryDy=0;exitX=1;exitY=0.5;exitDx=0;exitDy=0;" parent="1" source="53mwS3FT6bJK5tY8UTz--2" target="53mwS3FT6bJK5tY8UTz--35" edge="1">
          <mxGeometry width="50" height="50" relative="1" as="geometry">
            <mxPoint x="1300" y="630" as="sourcePoint" />
            <mxPoint x="1350" y="580" as="targetPoint" />
          </mxGeometry>
        </mxCell>
        <mxCell id="53mwS3FT6bJK5tY8UTz--37" value="" style="endArrow=none;dashed=1;html=1;rounded=0;entryX=0;entryY=0.5;entryDx=0;entryDy=0;exitX=1;exitY=0.5;exitDx=0;exitDy=0;" parent="1" source="53mwS3FT6bJK5tY8UTz--2" target="53mwS3FT6bJK5tY8UTz--34" edge="1">
          <mxGeometry width="50" height="50" relative="1" as="geometry">
            <mxPoint x="1300" y="630" as="sourcePoint" />
            <mxPoint x="1350" y="580" as="targetPoint" />
          </mxGeometry>
        </mxCell>
        <mxCell id="53mwS3FT6bJK5tY8UTz--38" value="" style="endArrow=none;dashed=1;html=1;rounded=0;entryX=0;entryY=0.5;entryDx=0;entryDy=0;exitX=1;exitY=0.5;exitDx=0;exitDy=0;" parent="1" source="53mwS3FT6bJK5tY8UTz--2" target="53mwS3FT6bJK5tY8UTz--33" edge="1">
          <mxGeometry width="50" height="50" relative="1" as="geometry">
            <mxPoint x="1300" y="630" as="sourcePoint" />
            <mxPoint x="1350" y="580" as="targetPoint" />
          </mxGeometry>
        </mxCell>
        <mxCell id="53mwS3FT6bJK5tY8UTz--39" value="combined_id" style="rounded=0;whiteSpace=wrap;html=1;" parent="1" vertex="1">
          <mxGeometry x="1400" y="792" width="130" height="70" as="geometry" />
        </mxCell>
        <mxCell id="53mwS3FT6bJK5tY8UTz--40" value="Connect" style="rhombus;whiteSpace=wrap;html=1;" parent="1" vertex="1">
          <mxGeometry x="1100" y="792" width="110" height="70" as="geometry" />
        </mxCell>
        <mxCell id="53mwS3FT6bJK5tY8UTz--41" value="" style="endArrow=none;dashed=1;html=1;rounded=0;exitX=1;exitY=0.5;exitDx=0;exitDy=0;entryX=0;entryY=0.5;entryDx=0;entryDy=0;" parent="1" source="53mwS3FT6bJK5tY8UTz--40" target="53mwS3FT6bJK5tY8UTz--39" edge="1">
          <mxGeometry width="50" height="50" relative="1" as="geometry">
            <mxPoint x="1390" y="730" as="sourcePoint" />
            <mxPoint x="1440" y="680" as="targetPoint" />
          </mxGeometry>
        </mxCell>
        <mxCell id="53mwS3FT6bJK5tY8UTz--42" value="" style="endArrow=none;dashed=1;html=1;rounded=0;exitX=0;exitY=0.5;exitDx=0;exitDy=0;entryX=1;entryY=0.5;entryDx=0;entryDy=0;" parent="1" source="53mwS3FT6bJK5tY8UTz--40" target="53mwS3FT6bJK5tY8UTz--11" edge="1">
          <mxGeometry width="50" height="50" relative="1" as="geometry">
            <mxPoint x="1390" y="730" as="sourcePoint" />
            <mxPoint x="1440" y="680" as="targetPoint" />
          </mxGeometry>
        </mxCell>
        <mxCell id="53mwS3FT6bJK5tY8UTz--43" value="&lt;u&gt;combined_id&lt;/u&gt;" style="ellipse;whiteSpace=wrap;html=1;" parent="1" vertex="1">
          <mxGeometry x="1520" y="1070" width="110" height="70" as="geometry" />
        </mxCell>
        <mxCell id="53mwS3FT6bJK5tY8UTz--44" value="assignment_id" style="ellipse;whiteSpace=wrap;html=1;" parent="1" vertex="1">
          <mxGeometry x="1360" y="1060" width="110" height="70" as="geometry" />
        </mxCell>
        <mxCell id="53mwS3FT6bJK5tY8UTz--45" value="student_id" style="ellipse;whiteSpace=wrap;html=1;" parent="1" vertex="1">
          <mxGeometry x="1210" y="1050" width="110" height="70" as="geometry" />
        </mxCell>
        <mxCell id="53mwS3FT6bJK5tY8UTz--46" value="" style="endArrow=none;dashed=1;html=1;rounded=0;entryX=0.5;entryY=0;entryDx=0;entryDy=0;exitX=0.5;exitY=1;exitDx=0;exitDy=0;" parent="1" source="53mwS3FT6bJK5tY8UTz--39" target="53mwS3FT6bJK5tY8UTz--43" edge="1">
          <mxGeometry width="50" height="50" relative="1" as="geometry">
            <mxPoint x="1630" y="750" as="sourcePoint" />
            <mxPoint x="1680" y="700" as="targetPoint" />
          </mxGeometry>
        </mxCell>
        <mxCell id="53mwS3FT6bJK5tY8UTz--47" value="" style="endArrow=none;dashed=1;html=1;rounded=0;entryX=0.5;entryY=0;entryDx=0;entryDy=0;exitX=0.5;exitY=1;exitDx=0;exitDy=0;" parent="1" source="53mwS3FT6bJK5tY8UTz--39" target="53mwS3FT6bJK5tY8UTz--44" edge="1">
          <mxGeometry width="50" height="50" relative="1" as="geometry">
            <mxPoint x="1480" y="750" as="sourcePoint" />
            <mxPoint x="1680" y="700" as="targetPoint" />
          </mxGeometry>
        </mxCell>
        <mxCell id="53mwS3FT6bJK5tY8UTz--48" value="" style="endArrow=none;dashed=1;html=1;rounded=0;entryX=0.5;entryY=0;entryDx=0;entryDy=0;exitX=0.444;exitY=1.01;exitDx=0;exitDy=0;exitPerimeter=0;" parent="1" source="53mwS3FT6bJK5tY8UTz--39" target="53mwS3FT6bJK5tY8UTz--45" edge="1">
          <mxGeometry width="50" height="50" relative="1" as="geometry">
            <mxPoint x="1480" y="750" as="sourcePoint" />
            <mxPoint x="1680" y="700" as="targetPoint" />
          </mxGeometry>
        </mxCell>
        <mxCell id="53mwS3FT6bJK5tY8UTz--51" value="Sort" style="rhombus;whiteSpace=wrap;html=1;" parent="1" vertex="1">
          <mxGeometry x="1706" y="795" width="96" height="65" as="geometry" />
        </mxCell>
        <mxCell id="53mwS3FT6bJK5tY8UTz--52" value="" style="endArrow=none;dashed=1;html=1;rounded=0;exitX=0;exitY=0.5;exitDx=0;exitDy=0;" parent="1" source="53mwS3FT6bJK5tY8UTz--51" target="53mwS3FT6bJK5tY8UTz--39" edge="1">
          <mxGeometry width="50" height="50" relative="1" as="geometry">
            <mxPoint x="1850" y="750" as="sourcePoint" />
            <mxPoint x="1900" y="700" as="targetPoint" />
          </mxGeometry>
        </mxCell>
        <mxCell id="53mwS3FT6bJK5tY8UTz--53" value="Student&#39;s assignments" style="rounded=0;whiteSpace=wrap;html=1;" parent="1" vertex="1">
          <mxGeometry x="1960" y="797.5" width="120" height="60" as="geometry" />
        </mxCell>
        <mxCell id="53mwS3FT6bJK5tY8UTz--54" value="" style="endArrow=none;dashed=1;html=1;rounded=0;entryX=1;entryY=0.5;entryDx=0;entryDy=0;exitX=0;exitY=0.5;exitDx=0;exitDy=0;" parent="1" source="53mwS3FT6bJK5tY8UTz--53" target="53mwS3FT6bJK5tY8UTz--51" edge="1">
          <mxGeometry width="50" height="50" relative="1" as="geometry">
            <mxPoint x="2070" y="720" as="sourcePoint" />
            <mxPoint x="2120" y="670" as="targetPoint" />
          </mxGeometry>
        </mxCell>
        <mxCell id="53mwS3FT6bJK5tY8UTz--55" value="&lt;u&gt;combined_id&lt;/u&gt;" style="ellipse;whiteSpace=wrap;html=1;" parent="1" vertex="1">
          <mxGeometry x="1830" y="1027" width="100" height="63" as="geometry" />
        </mxCell>
        <mxCell id="53mwS3FT6bJK5tY8UTz--56" value="grade" style="ellipse;whiteSpace=wrap;html=1;" parent="1" vertex="1">
          <mxGeometry x="2000" y="1030" width="100" height="60" as="geometry" />
        </mxCell>
        <mxCell id="53mwS3FT6bJK5tY8UTz--57" value="" style="endArrow=none;dashed=1;html=1;rounded=0;exitX=0.597;exitY=0.045;exitDx=0;exitDy=0;exitPerimeter=0;entryX=0.5;entryY=1;entryDx=0;entryDy=0;" parent="1" source="53mwS3FT6bJK5tY8UTz--55" target="53mwS3FT6bJK5tY8UTz--53" edge="1">
          <mxGeometry width="50" height="50" relative="1" as="geometry">
            <mxPoint x="2070" y="870" as="sourcePoint" />
            <mxPoint x="2120" y="820" as="targetPoint" />
          </mxGeometry>
        </mxCell>
        <mxCell id="53mwS3FT6bJK5tY8UTz--58" value="" style="endArrow=none;dashed=1;html=1;rounded=0;exitX=0.5;exitY=0;exitDx=0;exitDy=0;entryX=0.5;entryY=1;entryDx=0;entryDy=0;" parent="1" source="53mwS3FT6bJK5tY8UTz--56" target="53mwS3FT6bJK5tY8UTz--53" edge="1">
          <mxGeometry width="50" height="50" relative="1" as="geometry">
            <mxPoint x="2070" y="870" as="sourcePoint" />
            <mxPoint x="2060" y="760" as="targetPoint" />
          </mxGeometry>
        </mxCell>
        <mxCell id="UKyvtM7_vVmcsCnHlVPL-1" value="Connect" style="rhombus;whiteSpace=wrap;html=1;" vertex="1" parent="1">
          <mxGeometry x="1169" y="400" width="110" height="70" as="geometry" />
        </mxCell>
        <mxCell id="UKyvtM7_vVmcsCnHlVPL-2" value="Due Date" style="rounded=0;whiteSpace=wrap;html=1;" vertex="1" parent="1">
          <mxGeometry x="1065" y="520" width="110" height="60" as="geometry" />
        </mxCell>
        <mxCell id="UKyvtM7_vVmcsCnHlVPL-4" value="" style="endArrow=none;dashed=1;html=1;rounded=0;entryX=0.5;entryY=1;entryDx=0;entryDy=0;exitX=1;exitY=0;exitDx=0;exitDy=0;" edge="1" parent="1" source="UKyvtM7_vVmcsCnHlVPL-1" target="53mwS3FT6bJK5tY8UTz--2">
          <mxGeometry width="50" height="50" relative="1" as="geometry">
            <mxPoint x="1110" y="650" as="sourcePoint" />
            <mxPoint x="1160" y="600" as="targetPoint" />
          </mxGeometry>
        </mxCell>
        <mxCell id="UKyvtM7_vVmcsCnHlVPL-5" value="" style="endArrow=none;dashed=1;html=1;rounded=0;entryX=0;entryY=1;entryDx=0;entryDy=0;exitX=1;exitY=0;exitDx=0;exitDy=0;" edge="1" parent="1" source="UKyvtM7_vVmcsCnHlVPL-2" target="UKyvtM7_vVmcsCnHlVPL-1">
          <mxGeometry width="50" height="50" relative="1" as="geometry">
            <mxPoint x="1110" y="650" as="sourcePoint" />
            <mxPoint x="1160" y="600" as="targetPoint" />
          </mxGeometry>
        </mxCell>
        <mxCell id="UKyvtM7_vVmcsCnHlVPL-6" value="&#39;s" style="rhombus;whiteSpace=wrap;html=1;" vertex="1" parent="1">
          <mxGeometry x="945" y="650" width="120" height="70" as="geometry" />
        </mxCell>
        <mxCell id="UKyvtM7_vVmcsCnHlVPL-7" value="" style="endArrow=none;dashed=1;html=1;rounded=0;exitX=1;exitY=0;exitDx=0;exitDy=0;entryX=0.5;entryY=1;entryDx=0;entryDy=0;" edge="1" parent="1" source="UKyvtM7_vVmcsCnHlVPL-6" target="UKyvtM7_vVmcsCnHlVPL-2">
          <mxGeometry width="50" height="50" relative="1" as="geometry">
            <mxPoint x="1110" y="650" as="sourcePoint" />
            <mxPoint x="1160" y="600" as="targetPoint" />
          </mxGeometry>
        </mxCell>
        <mxCell id="UKyvtM7_vVmcsCnHlVPL-8" value="" style="endArrow=none;dashed=1;html=1;rounded=0;exitX=0.5;exitY=0;exitDx=0;exitDy=0;entryX=0;entryY=1;entryDx=0;entryDy=0;" edge="1" parent="1" source="53mwS3FT6bJK5tY8UTz--11" target="UKyvtM7_vVmcsCnHlVPL-6">
          <mxGeometry width="50" height="50" relative="1" as="geometry">
            <mxPoint x="1110" y="650" as="sourcePoint" />
            <mxPoint x="1160" y="600" as="targetPoint" />
          </mxGeometry>
        </mxCell>
        <mxCell id="UKyvtM7_vVmcsCnHlVPL-9" value="section_id" style="ellipse;whiteSpace=wrap;html=1;" vertex="1" parent="1">
          <mxGeometry x="1340" y="430" width="100" height="60" as="geometry" />
        </mxCell>
        <mxCell id="UKyvtM7_vVmcsCnHlVPL-10" value="assignment_id" style="ellipse;whiteSpace=wrap;html=1;" vertex="1" parent="1">
          <mxGeometry x="1340" y="540" width="100" height="60" as="geometry" />
        </mxCell>
        <mxCell id="UKyvtM7_vVmcsCnHlVPL-11" value="due_date" style="ellipse;whiteSpace=wrap;html=1;" vertex="1" parent="1">
          <mxGeometry x="1340" y="650" width="90" height="60" as="geometry" />
        </mxCell>
        <mxCell id="UKyvtM7_vVmcsCnHlVPL-12" value="" style="endArrow=none;dashed=1;html=1;rounded=0;entryX=1;entryY=0.5;entryDx=0;entryDy=0;exitX=0;exitY=0.5;exitDx=0;exitDy=0;" edge="1" parent="1" source="UKyvtM7_vVmcsCnHlVPL-9" target="UKyvtM7_vVmcsCnHlVPL-2">
          <mxGeometry width="50" height="50" relative="1" as="geometry">
            <mxPoint x="1220" y="650" as="sourcePoint" />
            <mxPoint x="1270" y="600" as="targetPoint" />
          </mxGeometry>
        </mxCell>
        <mxCell id="UKyvtM7_vVmcsCnHlVPL-13" value="" style="endArrow=none;dashed=1;html=1;rounded=0;exitX=1;exitY=0.5;exitDx=0;exitDy=0;entryX=0;entryY=0.5;entryDx=0;entryDy=0;" edge="1" parent="1" source="UKyvtM7_vVmcsCnHlVPL-2" target="UKyvtM7_vVmcsCnHlVPL-10">
          <mxGeometry width="50" height="50" relative="1" as="geometry">
            <mxPoint x="1220" y="650" as="sourcePoint" />
            <mxPoint x="1270" y="600" as="targetPoint" />
          </mxGeometry>
        </mxCell>
        <mxCell id="UKyvtM7_vVmcsCnHlVPL-14" value="" style="endArrow=none;dashed=1;html=1;rounded=0;exitX=1;exitY=0.5;exitDx=0;exitDy=0;entryX=0;entryY=0;entryDx=0;entryDy=0;" edge="1" parent="1" source="UKyvtM7_vVmcsCnHlVPL-2" target="UKyvtM7_vVmcsCnHlVPL-11">
          <mxGeometry width="50" height="50" relative="1" as="geometry">
            <mxPoint x="1220" y="650" as="sourcePoint" />
            <mxPoint x="1270" y="600" as="targetPoint" />
          </mxGeometry>
        </mxCell>
      </root>
    </mxGraphModel>
  </diagram>
</mxfile>
